<?xml version="1.0" standalone="no"?>
<!DOCTYPE svg PUBLIC "-//W3C//DTD SVG 20010904//EN"
 "http://www.w3.org/TR/2001/REC-SVG-20010904/DTD/svg10.dtd">
<svg version="1.0" xmlns="http://www.w3.org/2000/svg"
 width="1098.113022pt" height="906.166176pt" viewBox="0 0 1098.113022 906.166176"
 preserveAspectRatio="xMidYMid meet">
<metadata>
Created by potrace 1.12, written by Peter Selinger 2001-2015
</metadata>
<g transform="translate(-5.932337,917.858650) scale(0.100000,-0.100000)"
fill="#000000" stroke="none">
<path d="M5475 9136 c-44 -24 -134 -72 -200 -108 -66 -36 -154 -84 -195 -105
-88 -48 -176 -95 -245 -133 -99 -54 -270 -147 -285 -153 -8 -4 -33 -18 -55
-30 -22 -13 -85 -47 -140 -77 -55 -29 -188 -100 -295 -158 -107 -58 -233 -125
-280 -150 -74 -39 -146 -78 -355 -192 -98 -54 -472 -256 -615 -332 -41 -22
-97 -53 -125 -68 -27 -15 -81 -45 -120 -65 -78 -42 -542 -292 -650 -350 -108
-58 -160 -87 -285 -153 -184 -98 -187 -91 54 -92 l209 0 201 108 c111 60 428
232 706 382 278 150 730 394 1005 543 449 242 1030 556 1560 843 l190 103 30
-19 c16 -10 147 -81 290 -158 143 -77 366 -197 495 -267 219 -119 909 -491
2120 -1145 278 -150 554 -299 613 -331 l108 -59 211 2 211 3 -164 89 c-90 49
-303 164 -474 256 -170 92 -389 210 -485 262 -96 52 -209 113 -250 135 -183
98 -870 468 -915 493 -69 38 -274 149 -365 197 -41 22 -219 118 -395 213 -176
95 -457 247 -625 337 -168 91 -327 178 -355 193 l-50 29 -80 -43z"/>
<path d="M5565 7809 c-166 -25 -273 -97 -332 -224 -25 -54 -28 -70 -28 -170 0
-94 3 -117 23 -156 12 -25 22 -48 22 -52 0 -4 -29 -7 -65 -7 l-65 0 0 -115 0
-115 455 0 455 0 0 115 0 115 -52 0 c-184 1 -356 13 -393 30 -164 70 -158 286
9 335 87 26 201 12 278 -33 15 -9 29 -14 31 -11 2 2 27 48 54 102 l50 98 -56
28 c-113 58 -258 80 -386 60z"/>
<path d="M7800 7550 c-11 -11 -20 -31 -20 -45 0 -16 -6 -25 -15 -25 -8 0 -15
-9 -15 -20 0 -18 7 -20 80 -20 73 0 80 2 80 19 0 16 -8 20 -37 23 -30 2 -38 7
-38 23 0 16 6 19 27 17 31 -3 45 13 28 33 -18 21 -67 18 -90 -5z"/>
<path d="M7120 7410 l0 -50 45 0 45 0 0 50 0 50 -45 0 -45 0 0 -50z"/>
<path d="M7264 7446 c-3 -8 -4 -29 -2 -48 3 -32 5 -33 51 -36 l47 -3 0 50 0
51 -45 0 c-30 0 -47 -5 -51 -14z"/>
<path d="M6440 7355 l0 -45 45 0 45 0 0 45 0 45 -45 0 -45 0 0 -45z"/>
<path d="M6802 7189 l3 -211 32 -28 c26 -24 44 -29 108 -35 48 -5 114 -3 174
5 116 15 130 15 252 0 134 -18 236 -7 279 28 38 33 49 77 50 210 l0 92 -54 0
-54 0 -4 -98 c-4 -130 -6 -132 -119 -132 -49 0 -89 1 -89 3 0 1 9 20 20 42 25
50 25 98 0 150 -53 109 -229 123 -303 23 -28 -38 -35 -135 -13 -179 9 -18 16
-34 16 -36 0 -1 -35 -3 -78 -3 -114 0 -112 -3 -112 208 l0 172 -56 0 -55 0 3
-211z m485 16 c46 -32 37 -107 -17 -147 -32 -23 -53 -16 -80 27 -53 86 19 175
97 120z"/>
<path d="M7450 7355 l0 -45 50 0 50 0 0 45 0 45 -50 0 -50 0 0 -45z"/>
<path d="M7590 7355 l0 -45 50 0 50 0 0 45 0 45 -50 0 -50 0 0 -45z"/>
<path d="M7780 7161 l0 -239 51 -4 c28 -1 53 -1 55 1 2 2 4 112 4 243 l0 238
-55 0 -55 0 0 -239z"/>
<path d="M6250 7123 c0 -152 9 -191 58 -245 49 -55 102 -78 180 -78 99 0 169
46 211 140 17 38 21 66 21 178 l0 132 -55 0 -55 0 0 -120 c0 -169 -24 -217
-114 -227 -53 -6 -86 11 -116 60 -17 27 -20 51 -20 160 l0 127 -55 0 -55 0 0
-127z"/>
<path d="M1108 6723 l-358 -3 -1 -1058 c0 -865 -4 -2043 -8 -2639 l-1 -113
-135 0 -135 0 0 -115 0 -115 4830 0 4830 0 0 -1170 0 -1170 -95 0 -95 0 0 250
0 250 -1050 0 -1050 0 0 -250 0 -250 -95 0 -95 0 0 1070 0 1070 -1040 0 -1040
0 0 -1070 0 -1070 -944 0 -945 0 -6 57 c-4 32 -26 207 -50 388 -23 182 -42
331 -41 332 1 2 406 3 899 4 l897 0 0 110 0 109 -975 0 -975 0 0 360 0 361
-115 -3 -116 -3 -2 -855 -2 -855 -1107 -3 -1108 -2 0 79 c0 43 -3 93 -6 110
l-6 31 1015 0 1016 0 3 53 c2 28 1 80 0 115 l-4 62 -1008 0 -1009 0 -3 111
c-2 61 -1 113 1 115 2 2 458 4 1013 4 l1008 0 0 110 0 110 -1010 0 -1010 0 0
99 c0 55 -3 106 -6 115 -6 15 88 16 1010 16 l1016 0 0 115 0 115 -1010 0
-1009 0 -3 276 c-2 152 -1 277 2 278 3 2 993 4 2200 5 l2195 2 3 109 3 110
-2319 0 -2319 0 -1 -293 c-1 -160 -2 -642 -2 -1069 l0 -778 -340 0 -341 0 3
-107 3 -108 750 -5 c413 -3 2882 -4 5488 -2 l4737 2 0 110 0 110 -202 -2
c-202 -3 -203 -3 -206 -25 -2 -13 -7 -23 -12 -23 -5 0 -10 10 -12 23 -3 21 -7
22 -125 25 l-123 3 -2 1169 -3 1170 133 0 132 0 0 115 0 115 -3807 2 -3808 3
-3 1793 -2 1792 100 0 100 0 0 -1682 0 -1683 265 0 265 0 -2 1545 -3 1545 -23
62 c-48 127 -161 267 -309 380 l-72 55 -928 2 c-510 1 -1089 1 -1285 -1z
m1687 -233 c3 -6 -4 -10 -17 -10 -13 0 -99 -18 -192 -40 -195 -46 -176 -43
-176 -29 0 5 3 8 8 6 4 -3 13 1 20 9 7 8 8 14 3 14 -5 0 -8 9 -6 20 2 13 -2
20 -11 20 -8 0 -13 -5 -11 -11 4 -18 -19 -21 -36 -4 -17 17 -47 20 -47 5 0 -5
-5 -10 -11 -10 -5 0 -7 5 -4 10 3 6 -4 11 -17 12 -13 1 83 5 212 8 129 3 245
7 257 8 12 1 25 -2 28 -8z m-1792 -319 c9 -12 9 -13 0 -7 -10 5 -13 -33 -16
-166 -1 -95 -3 -22 -3 162 0 184 2 266 3 181 3 -103 8 -160 16 -170z m474 304
c8 -8 13 -19 11 -24 -2 -5 -11 2 -21 15 -20 27 -14 32 10 9z m112 -2 c0 -11
-3 -13 -6 -5 -5 14 -50 17 -55 3 -1 -5 -9 -3 -16 5 -11 12 -6 14 33 14 36 0
45 -3 44 -17z m168 10 c-25 -3 -35 -8 -30 -16 5 -9 3 -9 -8 -1 -8 7 -23 14
-34 17 -11 2 9 4 45 4 37 0 49 -2 27 -4z m513 -18 c0 -29 -8 -32 -26 -7 -13
17 -84 25 -84 9 0 -5 -4 -6 -9 -2 -19 11 -20 -14 -1 -36 19 -23 25 -18 21 19
-1 6 3 12 9 12 5 0 10 -7 10 -16 0 -11 6 -15 20 -11 11 3 20 1 20 -5 0 -6 7
-7 16 -4 8 3 12 2 9 -4 -3 -6 0 -10 7 -10 8 0 6 -5 -5 -11 -14 -8 -22 -7 -33
8 -14 17 -14 17 -5 -4 8 -16 7 -22 -4 -27 -17 -6 -20 -26 -4 -26 5 0 7 5 3 12
-4 7 -3 8 4 4 7 -4 12 -4 12 1 0 4 21 9 48 9 l47 1 -35 -12 c-20 -7 -50 -16
-68 -20 -30 -6 -33 -5 -38 24 -4 17 -10 28 -15 25 -5 -3 -5 -14 1 -24 8 -16 8
-18 -5 -14 -8 3 -12 11 -8 17 4 6 0 8 -10 4 -23 -9 -38 23 -32 67 l4 36 -51 0
c-46 0 -49 -1 -37 -17 12 -15 12 -16 -5 -10 -13 5 -17 3 -13 -7 4 -10 1 -13
-7 -10 -8 3 -12 14 -9 25 4 15 1 19 -21 17 -27 -2 -34 -12 -16 -23 6 -3 10
-14 9 -23 0 -13 -2 -14 -6 -2 -10 25 -42 53 -55 48 -7 -3 -22 -2 -33 3 -11 4
73 8 188 8 l207 1 0 -25z m-173 -40 c4 -13 -46 -13 -51 0 -2 6 8 11 22 10 14
0 27 -4 29 -10z m-437 -170 c7 -9 11 -17 8 -20 -2 -2 -12 4 -21 15 -9 11 -13
20 -8 20 5 0 14 -7 21 -15z m-673 -497 c-2 -13 -4 -5 -4 17 -1 22 1 32 4 23 2
-10 2 -28 0 -40z m1676 -322 c44 -18 73 -52 60 -68 -6 -7 -14 -28 -18 -45 -6
-32 -25 -46 -25 -19 0 7 -7 19 -15 26 -13 11 -13 9 -1 -22 17 -40 7 -69 -17
-50 -24 20 -50 -13 -43 -52 11 -60 4 -1291 -7 -1302 -4 -4 -7 1 -7 12 -2 75
-11 198 -16 205 -3 5 -7 51 -10 102 -2 50 -6 106 -9 122 -3 17 -6 39 -8 50 -1
11 -6 24 -12 28 -6 6 -6 10 3 14 6 2 12 14 12 24 0 11 -4 18 -9 15 -6 -4 -6 5
-2 21 5 19 3 31 -6 38 -14 11 -21 56 -22 144 -1 30 -3 52 -6 49 -3 -2 -7 -205
-10 -451 l-6 -445 25 -29 c22 -25 25 -26 31 -10 9 21 25 22 25 1 0 -8 -4 -12
-10 -9 -5 3 -10 2 -10 -4 0 -5 8 -12 18 -14 14 -4 14 -5 1 -6 -25 -2 -70 38
-85 75 -11 27 -14 157 -14 703 0 419 -4 672 -10 676 -18 11 -29 74 -19 110 27
97 132 150 222 111z m17 -1486 c11 -6 24 -19 30 -30 9 -16 8 -18 -6 -13 -12 4
-15 0 -13 -23 3 -47 0 -74 -11 -74 -5 0 -7 7 -4 15 4 9 -3 16 -20 21 -14 3
-26 10 -26 16 0 5 -4 6 -10 3 -5 -3 -10 -1 -10 4 0 6 4 11 9 11 8 0 25 56 22
73 -2 10 17 9 39 -3z m4623 -1567 c-13 -2 -33 -2 -45 0 -13 2 -3 4 22 4 25 0
35 -2 23 -4z m211 -94 c-2 -4 3 -10 11 -13 11 -4 14 -14 10 -35 -4 -22 0 -33
12 -40 16 -9 17 -10 1 -11 -12 0 -16 -7 -13 -22 5 -24 -10 -57 -20 -47 -3 3
-8 51 -11 105 -3 67 -2 94 5 84 5 -8 8 -17 5 -21z m-1517 -80 c7 -7 166 -9
512 -7 410 2 502 1 506 -10 9 -25 5 -68 -9 -88 -14 -18 -31 -19 -322 -22 -203
-2 -311 1 -318 8 -13 13 -29 13 -21 0 3 -5 -1 -10 -10 -10 -9 0 -13 5 -10 10
3 6 -3 10 -14 10 -11 0 -23 5 -26 10 -4 6 -3 10 2 9 4 -1 60 0 123 1 100 3
107 4 55 10 -33 4 -47 7 -32 8 16 1 26 6 23 11 -4 5 0 11 6 13 21 7 -465 19
-489 12 -13 -4 -23 -11 -23 -16 0 -5 5 -6 10 -3 6 3 10 -1 10 -10 0 -10 -5
-14 -12 -9 -7 4 -3 -3 10 -16 27 -26 23 -37 -6 -19 -36 22 -21 118 19 119 3 0
10 -5 16 -11z m1520 -186 c-2 -16 -4 -5 -4 22 0 28 2 40 4 28 2 -13 2 -35 0
-50z m1803 -1398 c16 -10 5 -67 -16 -82 -26 -19 -420 -18 -490 2 l-49 13 95 2
c52 1 120 4 150 6 30 2 95 5 143 7 104 5 128 17 36 17 -263 2 -672 23 -676 35
-3 11 790 11 807 0z"/>
<path d="M2502 4770 c0 -19 2 -27 5 -17 2 9 2 25 0 35 -3 9 -5 1 -5 -18z"/>
<path d="M3979 6723 c-2 -4 -3 -56 -1 -115 l3 -108 197 2 197 3 -192 2 -193 3
0 81 0 80 50 -2 c28 -2 50 -6 50 -10 0 -4 9 -5 20 -2 12 3 20 0 20 -7 0 -7 5
-6 15 4 18 17 49 10 41 -10 -3 -8 0 -11 9 -8 8 3 11 13 8 21 -5 13 -3 13 16 4
12 -7 25 -9 30 -6 17 10 662 30 685 22 12 -5 10 -16 -6 -61 -12 -31 -25 -56
-29 -56 -5 0 -9 -8 -9 -18 0 -10 -5 -23 -12 -30 -9 -9 -6 -12 14 -12 23 0 30
10 68 105 23 58 41 107 39 109 -9 8 -1017 17 -1020 9z"/>
<path d="M5260 6711 c-5 -11 -45 -111 -88 -223 -43 -112 -151 -385 -240 -608
-88 -223 -256 -648 -372 -945 -274 -698 -376 -958 -555 -1410 -81 -203 -147
-374 -148 -379 -1 -6 132 -9 327 -8 271 1 331 3 337 15 5 7 55 139 112 293
133 355 128 344 173 394 78 86 151 106 429 120 494 25 775 84 1040 217 219
110 424 282 552 463 l28 40 1753 0 1754 0 -4 1015 c-3 558 -8 1018 -12 1022
-7 7 -4172 13 -4187 6 -4 -2 14 -52 39 -113 l45 -110 309 0 309 0 -3 -517 c-4
-495 -5 -522 -26 -596 -45 -163 -152 -321 -330 -487 -281 -262 -552 -390 -922
-434 -147 -18 -567 -42 -576 -33 -5 5 126 363 428 1172 50 132 99 268 111 303
12 34 24 62 27 62 3 0 49 -121 104 -268 140 -380 357 -945 366 -956 11 -12
156 76 249 151 42 34 112 98 156 142 l79 81 -11 37 c-6 21 -119 310 -251 643
-132 333 -269 677 -304 765 l-64 160 -311 3 c-301 2 -313 2 -323 -17z m3260
-1006 l0 -795 -710 0 -710 0 0 163 c0 136 0 1417 0 1425 0 1 320 2 710 2 l710
0 0 -795z m1610 2 c0 -437 -2 -796 -4 -798 -2 -2 -324 -3 -715 -1 l-711 2 0
795 0 795 715 0 715 0 0 -793z"/>
<path d="M7190 5700 l0 -700 620 0 620 0 0 700 0 700 -620 0 -620 0 0 -700z
m1034 156 c-6 -16 53 -28 60 -12 2 6 5 3 5 -6 1 -9 -3 -20 -9 -23 -6 -4 -10
-102 -10 -261 0 -163 4 -254 10 -254 16 0 12 -27 -6 -34 -9 -3 -25 4 -39 18
-15 15 -26 20 -29 13 -2 -7 -5 114 -5 269 -1 205 2 283 11 292 16 16 19 15 12
-2z"/>
<path d="M8794 6384 c3 -9 6 -324 6 -700 l0 -684 615 0 615 0 0 700 0 700
-621 0 c-562 0 -621 -1 -615 -16z m211 -543 c6 -1 9 -96 7 -271 -4 -242 -2
-270 12 -270 9 0 16 -7 16 -17 0 -9 -3 -13 -7 -10 -3 4 -12 2 -19 -4 -10 -8
-21 -6 -44 7 l-30 18 0 271 c0 150 2 274 5 277 5 5 20 4 60 -1z"/>
<path d="M4034 6608 c-4 -6 -3 -8 3 -5 10 6 60 -25 75 -47 4 -6 9 -8 12 -5 3
3 -7 20 -22 37 -30 33 -55 41 -68 20z"/>
<path d="M4140 6603 c0 -13 5 -23 10 -23 6 0 10 -5 10 -11 0 -5 -4 -7 -10 -4
-5 3 -10 1 -10 -4 0 -6 4 -11 9 -11 19 0 22 20 7 47 -14 26 -15 27 -16 6z"/>
<path d="M4198 6544 c19 -26 29 -30 29 -11 0 7 -11 18 -23 24 -23 11 -23 10
-6 -13z"/>
<path d="M415 6399 c-38 -23 -92 -54 -120 -69 -27 -15 -79 -44 -115 -64 -36
-20 -75 -42 -88 -48 -12 -6 -25 -21 -27 -32 -3 -12 -4 -1265 -3 -2786 l3
-2765 108 -3 107 -3 0 73 c1 40 1 1266 0 2725 l-1 2652 105 58 106 58 0 123
c0 67 -1 122 -2 122 -2 0 -34 -19 -73 -41z"/>
<path d="M10600 6321 l0 -120 105 -57 105 -57 2 -2726 3 -2726 113 -3 112 -3
-3 978 c-3 895 -5 983 -20 1033 -20 62 -27 252 -15 410 4 52 10 151 14 220 3
69 8 145 11 170 8 61 16 2697 9 2735 -5 27 -25 41 -212 145 -113 63 -210 117
-215 118 -5 2 -9 -48 -9 -117z"/>
<path d="M8144 4612 c-38 -25 -35 -94 5 -119 25 -16 820 -30 806 -14 -7 7 -95
11 -258 11 -146 1 -247 5 -247 11 0 5 15 10 33 11 17 1 39 2 47 4 8 1 105 3
215 4 110 2 187 5 171 7 -17 3 -25 8 -18 12 6 4 -20 8 -58 9 -43 2 -70 -1 -70
-8 0 -5 -10 -10 -22 -10 -19 0 -20 2 -8 10 8 5 10 10 4 10 -5 0 -16 -6 -23
-12 -11 -11 -12 -10 -6 1 6 11 -8 13 -79 10 -47 -2 -87 0 -89 4 -1 4 -74 11
-161 14 -150 6 -160 7 -179 30 -21 23 -43 29 -63 15z"/>
<path d="M9014 4605 c-17 -13 -16 -14 19 -8 20 3 37 2 38 -3 0 -5 2 -19 5 -30
6 -32 -32 -74 -66 -74 -16 0 -32 -5 -36 -12 -5 -8 0 -9 17 -5 13 4 32 7 42 7
25 0 67 48 67 76 0 26 -32 64 -53 64 -7 0 -22 -7 -33 -15z"/>
<path d="M7052 4422 c1 -4 16 -40 32 -80 27 -68 46 -91 46 -57 0 8 4 15 10 15
5 0 7 -7 3 -15 -5 -13 -2 -14 21 -4 14 7 26 19 26 28 0 14 -2 14 -11 1 -9 -12
-10 -12 -5 3 3 10 6 24 6 31 0 7 6 13 13 14 242 20 3082 21 3102 0 3 -3 -9
-25 -28 -49 l-33 -44 -1557 -3 c-856 -1 -1557 -6 -1557 -10 0 -9 76 -201 82
-207 2 -3 180 -6 396 -7 l392 -3 0 56 c0 30 5 60 12 67 17 17 64 15 82 -4 18
-17 21 -28 6 -19 -6 4 -10 -5 -10 -20 0 -15 -5 -36 -11 -47 -6 -12 -13 -78
-15 -147 -2 -69 -6 -169 -8 -221 -3 -52 -6 -141 -7 -198 l-1 -102 -43 -19
c-24 -11 -48 -28 -54 -39 -16 -31 -13 -37 9 -17 19 17 19 17 10 -13 -7 -25 -4
-37 13 -59 12 -15 28 -32 37 -37 8 -5 37 -33 64 -63 49 -53 70 -64 79 -40 4 9
6 9 6 -1 2 -22 -48 -110 -71 -126 -12 -9 -17 -16 -9 -16 18 0 65 52 87 97 27
56 31 175 7 238 -17 45 -55 84 -95 97 -8 3 -6 90 7 308 9 168 19 311 21 318 3
10 46 13 204 10 l200 -3 0 56 c0 30 5 60 12 67 17 17 64 15 82 -4 17 -17 21
-44 7 -44 -25 0 -38 -132 -47 -473 -6 -233 -6 -240 15 -268 11 -15 21 -31 21
-34 0 -3 10 -19 22 -36 21 -29 23 -39 20 -180 -2 -91 1 -149 7 -149 11 0 18
41 31 204 9 108 8 123 -9 162 -12 27 -31 49 -51 59 l-32 17 7 134 c4 73 12
213 19 311 l11 178 218 0 217 0 0 57 c0 61 13 78 59 78 43 0 70 -68 37 -94
-22 -17 -34 -207 -38 -588 l-3 -237 38 -38 c39 -41 45 -57 25 -67 -17 -8 79 1
112 10 24 7 23 6 -10 -41 -37 -51 -93 -90 -117 -81 -8 4 -11 1 -7 -5 3 -6 -7
-24 -22 -41 l-29 -31 49 6 c68 7 124 48 159 117 18 36 27 67 25 90 -3 31 -8
36 -48 51 -25 10 -67 21 -95 26 l-50 8 3 135 c2 74 10 248 18 385 8 138 14
253 14 258 0 4 266 7 591 7 l590 0 -3 193 -3 192 -1653 3 c-910 1 -1652 -1
-1650 -6z"/>
<path d="M6760 4354 c-108 -109 -268 -228 -398 -293 -34 -17 -62 -37 -62 -44
0 -14 330 -859 339 -868 9 -10 671 -19 671 -10 0 9 -109 293 -245 636 -48 121
-121 308 -162 415 -41 107 -78 201 -82 207 -5 9 -24 -5 -61 -43z"/>
<path d="M7239 4358 c-8 -29 -6 -52 5 -64 20 -19 37 -18 29 3 -5 12 -3 14 8 8
12 -7 12 -6 1 7 -8 9 -20 14 -27 12 -10 -4 -12 0 -8 15 3 12 3 21 -1 21 -3 0
-6 -1 -7 -2z"/>
<path d="M8024 4125 c-9 -21 3 -45 21 -45 21 0 30 27 15 45 -16 19 -29 19 -36
0z"/>
<path d="M8544 4125 c-9 -21 3 -45 21 -45 21 0 30 27 15 45 -16 19 -29 19 -36
0z"/>
<path d="M9102 4131 c-20 -12 -10 -46 13 -46 14 0 20 7 20 24 0 27 -13 35 -33
22z"/>
<path d="M8454 3313 c-10 -36 3 -294 16 -324 8 -19 9 -12 5 31 -3 30 -6 115
-8 187 -1 73 -3 133 -4 133 -2 0 -6 -12 -9 -27z"/>
<path d="M8520 3170 c0 -40 3 -70 6 -67 8 7 6 128 -1 135 -3 3 -5 -28 -5 -68z"/>
<path d="M8960 3222 c-29 -11 -46 -25 -49 -37 -3 -20 -3 -20 18 -1 11 10 45
27 73 37 35 12 44 18 28 18 -14 0 -45 -8 -70 -17z"/>
<path d="M8581 3098 c-1 -80 3 -128 9 -128 12 0 12 157 1 215 -7 30 -9 8 -10
-87z"/>
<path d="M8532 3000 c0 -19 2 -27 5 -17 2 9 2 25 0 35 -3 9 -5 1 -5 -18z"/>
<path d="M7840 2140 l0 -340 1048 2 1047 3 3 338 2 337 -1050 0 -1050 0 0
-340z m1486 113 c4 -13 1 -35 -6 -49 l-13 -24 -261 1 c-144 0 -270 4 -281 9
-19 8 -19 9 3 11 64 7 86 8 198 10 86 1 121 5 121 14 0 9 -31 13 -106 13 -159
2 -390 14 -441 22 -25 4 129 8 342 9 219 0 389 5 392 10 11 17 46 -1 52 -26z"/>
<path d="M3638 2055 c-10 -10 4 -54 16 -49 6 2 38 -32 70 -77 l60 -80 678 3
c397 1 678 6 678 11 0 5 6 5 13 0 6 -6 60 -11 120 -11 l107 -2 0 105 0 105
-868 0 c-478 0 -871 -2 -874 -5z m1502 -130 c0 -2 -8 -3 -18 -2 -10 0 -19 7
-19 13 0 9 5 10 19 3 10 -5 18 -12 18 -14z m67 -16 c-6 -10 -16 -15 -21 -12
-6 4 -5 8 2 11 7 2 10 7 8 11 -3 4 1 8 8 8 11 0 12 -4 3 -18z m-42 -19 c6 -1
12 -4 15 -7 3 -4 -1 -3 -7 1 -7 4 -13 3 -13 -2 0 -17 -29 -9 -33 9 -4 15 -2
17 11 10 10 -5 22 -10 27 -11z"/>
<path d="M7840 1320 l0 -340 1048 2 1047 3 3 338 2 337 -1050 0 -1050 0 0
-340z m1479 126 c12 -8 -4 -76 -21 -88 -17 -12 -484 -3 -523 10 -26 9 -17 11
55 13 47 1 110 3 140 4 30 2 75 3 99 4 24 0 42 4 38 7 -3 4 -24 6 -47 6 -22 0
-40 3 -40 9 0 13 -28 11 -32 -3 -3 -7 -10 -8 -17 -4 -20 12 -101 13 -101 1 0
-7 -3 -7 -8 0 -4 6 -36 12 -72 14 -166 8 -271 18 -280 27 -10 10 793 10 809 0z"/>
</g>
</svg>
